<svg xmlns="http://www.w3.org/2000/svg" width="620" height="520" viewBox="0 0 620 520">
  <rect width="620" height="520" fill="#ffffff"/>
  <text x="35" y="34" font-family="Arial" font-size="22" font-weight="bold">Confusion matrix</text>
  <text x="35" y="60" font-family="Arial" font-size="13" fill="#555555">Fitness trainer model: linear / 100Hz / accelerometer + gyroscope / fft</text>

  <text x="285" y="492" font-family="Arial" font-size="14" text-anchor="middle">Predicted activity</text>
  <text x="20" y="270" font-family="Arial" font-size="14" text-anchor="middle" transform="rotate(-90 20 270)">Actual activity</text>

  <text x="180" y="100" font-family="Arial" font-size="12" text-anchor="middle">jumping_jacks</text>
  <text x="280" y="100" font-family="Arial" font-size="12" text-anchor="middle">lifting</text>
  <text x="380" y="100" font-family="Arial" font-size="12" text-anchor="middle">rowing</text>
  <text x="480" y="100" font-family="Arial" font-size="12" text-anchor="middle">running</text>

  <text x="95" y="155" font-family="Arial" font-size="12" text-anchor="end">jumping_jacks</text>
  <text x="95" y="255" font-family="Arial" font-size="12" text-anchor="end">lifting</text>
  <text x="95" y="355" font-family="Arial" font-size="12" text-anchor="end">rowing</text>
  <text x="95" y="455" font-family="Arial" font-size="12" text-anchor="end">running</text>

  <rect x="130" y="120" width="100" height="100" fill="#08306b"/>
  <text x="180" y="175" font-family="Arial" font-size="24" fill="#ffffff" text-anchor="middle">19</text>
  <rect x="230" y="120" width="100" height="100" fill="#f7fbff"/>
  <text x="280" y="175" font-family="Arial" font-size="24" fill="#222222" text-anchor="middle">0</text>
  <rect x="330" y="120" width="100" height="100" fill="#f7fbff"/>
  <text x="380" y="175" font-family="Arial" font-size="24" fill="#222222" text-anchor="middle">0</text>
  <rect x="430" y="120" width="100" height="100" fill="#deebf7"/>
  <text x="480" y="175" font-family="Arial" font-size="24" fill="#222222" text-anchor="middle">1</text>

  <rect x="130" y="220" width="100" height="100" fill="#f7fbff"/>
  <text x="180" y="275" font-family="Arial" font-size="24" fill="#222222" text-anchor="middle">0</text>
  <rect x="230" y="220" width="100" height="100" fill="#08306b"/>
  <text x="280" y="275" font-family="Arial" font-size="24" fill="#ffffff" text-anchor="middle">19</text>
  <rect x="330" y="220" width="100" height="100" fill="#deebf7"/>
  <text x="380" y="275" font-family="Arial" font-size="24" fill="#222222" text-anchor="middle">1</text>
  <rect x="430" y="220" width="100" height="100" fill="#f7fbff"/>
  <text x="480" y="275" font-family="Arial" font-size="24" fill="#222222" text-anchor="middle">0</text>

  <rect x="130" y="320" width="100" height="100" fill="#f7fbff"/>
  <text x="180" y="375" font-family="Arial" font-size="24" fill="#222222" text-anchor="middle">0</text>
  <rect x="230" y="320" width="100" height="100" fill="#9ecae1"/>
  <text x="280" y="375" font-family="Arial" font-size="24" fill="#222222" text-anchor="middle">5</text>
  <rect x="330" y="320" width="100" height="100" fill="#2171b5"/>
  <text x="380" y="375" font-family="Arial" font-size="24" fill="#ffffff" text-anchor="middle">15</text>
  <rect x="430" y="320" width="100" height="100" fill="#f7fbff"/>
  <text x="480" y="375" font-family="Arial" font-size="24" fill="#222222" text-anchor="middle">0</text>

  <rect x="130" y="420" width="100" height="100" fill="#f7fbff"/>
  <text x="180" y="475" font-family="Arial" font-size="24" fill="#222222" text-anchor="middle">0</text>
  <rect x="230" y="420" width="100" height="100" fill="#f7fbff"/>
  <text x="280" y="475" font-family="Arial" font-size="24" fill="#222222" text-anchor="middle">0</text>
  <rect x="330" y="420" width="100" height="100" fill="#f7fbff"/>
  <text x="380" y="475" font-family="Arial" font-size="24" fill="#222222" text-anchor="middle">0</text>
  <rect x="430" y="420" width="100" height="100" fill="#08306b"/>
  <text x="480" y="475" font-family="Arial" font-size="24" fill="#ffffff" text-anchor="middle">20</text>
</svg>
